<svg width="24" height="24" viewBox="0 0 24 24" fill="none" xmlns="http://www.w3.org/2000/svg">
<path fill-rule="evenodd" clip-rule="evenodd" d="M5.581 11.2216C7.40811 8.30868 9.77445 7 12 7C14.2255 7 16.5918 8.30868 18.4189 11.2216C18.7169 11.6966 18.7169 12.3034 18.4189 12.7784C16.5918 15.6913 14.2255 17 12 17C9.77445 17 7.40811 15.6913 5.581 12.7784C5.28306 12.3034 5.28306 11.6966 5.581 11.2216ZM20.1132 10.1588C18.0178 6.81811 15.0793 5 12 5C8.92066 5 5.98218 6.81811 3.88672 10.1588C3.18115 11.2837 3.18115 12.7163 3.88672 13.8412C5.98218 17.1819 8.92066 19 12 19C15.0793 19 18.0178 17.1819 20.1132 13.8412C20.8188 12.7163 20.8188 11.2837 20.1132 10.1588ZM11.9152 10.0018C11.9433 10.0006 11.9716 10 12 10C13.1045 10 14 10.8954 14 12C14 13.1046 13.1045 14 12 14C10.8954 14 9.99997 13.1046 9.99997 12C9.99997 11.9716 10.0006 11.9434 10.0017 11.9153C10.1576 11.9701 10.3253 12 10.5 12C11.3284 12 12 11.3284 12 10.5C12 10.3253 11.9701 10.1577 11.9152 10.0018ZM12 8C9.79083 8 7.99997 9.79086 7.99997 12C7.99997 14.2091 9.79083 16 12 16C14.2091 16 16 14.2091 16 12C16 9.79086 14.2091 8 12 8Z" fill="currentColor"/>
</svg>
