<svg width="40" height="40" viewBox="0 0 40 40" fill="none" xmlns="http://www.w3.org/2000/svg">
<path d="M15.0001 35H11.6667C8.90532 35 6.66675 32.8982 6.66675 30.3055V18.1667C6.66675 16.9217 7.19353 15.7276 8.13121 14.8472L17.6431 5.91665C18.9448 4.69445 21.0554 4.69445 22.3571 5.91665L31.8689 14.8472C32.8066 15.7276 33.3334 16.9217 33.3334 18.1667V30.3055C33.3334 32.8982 31.0948 35 28.3334 35H25.0001M15.0001 35V26.6667C15.0001 24.8257 16.4925 23.3333 18.3334 23.3333H21.6667C23.5077 23.3333 25.0001 24.8257 25.0001 26.6667V35M15.0001 35H25.0001" stroke="#267BD9" stroke-width="2"/>
</svg>
