<svg width="40" height="40" viewBox="0 0 40 40" fill="none" xmlns="http://www.w3.org/2000/svg">
<path fill-rule="evenodd" clip-rule="evenodd" d="M7.33325 14.8666C7.33325 7.93389 13.0152 2.33337 19.9999 2.33337C26.9847 2.33337 32.6666 7.93389 32.6666 14.8666C32.6666 21.4869 30.1877 25.0479 22.2137 36.5028L22.1989 36.5241C21.1384 38.0476 18.8615 38.0476 17.8009 36.5241L17.7861 36.5028C9.8121 25.0479 7.33325 21.4869 7.33325 14.8666ZM19.9999 4.33337C14.098 4.33337 9.33325 9.06009 9.33325 14.8666C9.33325 20.7368 11.3442 23.7481 19.4424 35.3814C19.7072 35.7618 20.2927 35.7618 20.5575 35.3814C28.6556 23.7481 30.6666 20.7368 30.6666 14.8666C30.6666 9.06009 25.9018 4.33337 19.9999 4.33337ZM15.6666 15C15.6666 12.6068 17.6067 10.6667 19.9999 10.6667C22.3932 10.6667 24.3333 12.6068 24.3333 15C24.3333 17.3933 22.3932 19.3334 19.9999 19.3334C17.6067 19.3334 15.6666 17.3933 15.6666 15ZM19.9999 12.6667C18.7113 12.6667 17.6666 13.7114 17.6666 15C17.6666 16.2887 18.7113 17.3334 19.9999 17.3334C21.2886 17.3334 22.3333 16.2887 22.3333 15C22.3333 13.7114 21.2886 12.6667 19.9999 12.6667Z" fill="#666D80"/>
</svg>
