<svg width="24" height="24" viewBox="0 0 24 24" fill="none" xmlns="http://www.w3.org/2000/svg">
<path d="M8 7H16M8 11H16M8 15H16M7 2H17C18.6569 2 20 3.35112 20 5.01781V21.3049C20 21.6788 19.6088 21.922 19.2764 21.7548L16.4472 20.3318C16.1657 20.1902 15.8343 20.1902 15.5528 20.3318L12.4472 21.8938C12.1657 22.0354 11.8343 22.0354 11.5528 21.8938L8.44721 20.3318C8.16569 20.1902 7.83431 20.1902 7.55279 20.3318L4.72361 21.7548C4.39116 21.922 4 21.6788 4 21.3049V5.01781C4 3.35112 5.34315 2 7 2Z" stroke="currentColor" stroke-width="1.5" stroke-linecap="round" stroke-linejoin="round"/>
</svg>
