<svg width="40" height="40" viewBox="0 0 40 40" fill="none" xmlns="http://www.w3.org/2000/svg">
<path d="M8.71492 30.4482H7.83628C5.71756 30.4482 4 28.7306 4 26.6118V10.0628C4 7.94394 5.71756 6.22632 7.83628 6.22632H20.7946C22.9134 6.22632 24.631 7.94394 24.631 10.0628V30.4482H15.59614M32.6422 18.43412H24.631V9.96692H25.6648C26.348 9.96686 27.0188 10.1492 27.608 10.495C28.1972 10.841 28.6834 11.3379 29.0162 11.93452L32.6422 18.43412Z" stroke="#666D80" stroke-width="2" stroke-miterlimit="10" stroke-linecap="round" stroke-linejoin="round"/>
<path d="M12.15628 33.7738C14.0117 33.7738 15.5158 32.2704 15.5158 30.4158C15.5158 28.5612 14.0117 27.0578 12.15628 27.0578C10.30086 27.0578 8.79676 28.5612 8.79676 30.4158C8.79676 32.2704 10.30086 33.7738 12.15628 33.7738Z" stroke="#666D80" stroke-width="2" stroke-miterlimit="10" stroke-linecap="round" stroke-linejoin="round"/>
<path d="M27.9906 33.7738C29.846 33.7738 31.35 32.2704 31.35 30.4158C31.35 28.5612 29.846 27.0578 27.9906 27.0578C26.135 27.0578 24.631 28.5612 24.631 30.4158C24.631 32.2704 26.135 33.7738 27.9906 33.7738Z" stroke="#666D80" stroke-width="2" stroke-miterlimit="10" stroke-linecap="round" stroke-linejoin="round"/>
<path d="M31.5406 30.4482H33.3842C34.4724 30.4482 35.4062 29.7878 35.807 28.846M36 21.9182C35.8222 19.96464 34.1796 18.4342 32.1798 18.4342H24.631V30.4484" stroke="#666D80" stroke-width="2" stroke-miterlimit="10" stroke-linecap="round" stroke-linejoin="round"/>
</svg> 
 
 
 
 